<svg width="185" height="26" viewBox="0 0 185 26" fill="none" xmlns="http://www.w3.org/2000/svg">
<path d="M5.40002 7.35022H0.51001C0.27001 7.35022 0.0700073 7.15028 0.0700073 6.91028V4.91028C0.0700073 4.67028 0.27001 4.47021 0.51001 4.47021H13.47C13.71 4.47021 13.91 4.67028 13.91 4.91028V6.91028C13.91 7.15028 13.71 7.35022 13.47 7.35022H8.58002V20.8502C8.58002 21.0902 8.38001 21.2903 8.14001 21.2903H5.84998C5.60998 21.2903 5.40997 21.0902 5.40997 20.8502V7.35022H5.40002Z" fill="#003F4D"/>
<path d="M33.85 4.91028V18.3602H42.06C42.3 18.3602 42.5 18.5603 42.5 18.8003V20.8502C42.5 21.0902 42.3 21.2903 42.06 21.2903H31.12C30.88 21.2903 30.68 21.0902 30.68 20.8502V4.91028C30.68 4.67028 30.88 4.47021 31.12 4.47021H33.41C33.65 4.47021 33.85 4.67028 33.85 4.91028Z" fill="#003F4D"/>
<path d="M56.83 21.3H45.12C44.88 21.3 44.68 21.1 44.68 20.86V4.92004C44.68 4.68004 44.88 4.47998 45.12 4.47998H56.83C57.07 4.47998 57.27 4.68004 57.27 4.92004V7.10999C57.27 7.34999 57.07 7.55005 56.83 7.55005H47.82V11.42H56.49C56.73 11.42 56.93 11.62 56.93 11.86V13.9301C56.93 14.1701 56.73 14.37 56.49 14.37H47.82V18.17H56.83C57.07 18.17 57.27 18.37 57.27 18.61V20.85C57.27 21.09 57.07 21.29 56.83 21.29V21.3Z" fill="#003F4D"/>
<path d="M184.31 21.3H172.6C172.36 21.3 172.16 21.1 172.16 20.86V4.92004C172.16 4.68004 172.36 4.47998 172.6 4.47998H184.31C184.55 4.47998 184.75 4.68004 184.75 4.92004V7.10999C184.75 7.34999 184.55 7.55005 184.31 7.55005H175.3V11.42H183.97C184.21 11.42 184.41 11.62 184.41 11.86V13.9301C184.41 14.1701 184.21 14.37 183.97 14.37H175.3V18.17H184.31C184.55 18.17 184.75 18.37 184.75 18.61V20.85C184.75 21.09 184.55 21.29 184.31 21.29V21.3Z" fill="#003F4D"/>
<path d="M70.97 15.79V4.91003C70.97 4.67003 71.17 4.46997 71.41 4.46997H73.7C73.94 4.46997 74.14 4.67003 74.14 4.91003V20.85C74.14 21.09 73.94 21.29 73.7 21.29H71.78C71.65 21.29 71.52 21.23 71.43 21.12L62.62 10.08V20.84C62.62 21.08 62.42 21.28 62.18 21.28H59.89C59.65 21.28 59.45 21.08 59.45 20.84V4.90002C59.45 4.66002 59.65 4.45996 59.89 4.45996H61.81C61.95 4.45996 62.07 4.52 62.16 4.63L70.97 15.78V15.79Z" fill="#003F4D"/>
<path d="M81.65 7.35022H76.76C76.52 7.35022 76.32 7.15028 76.32 6.91028V4.91028C76.32 4.67028 76.52 4.47021 76.76 4.47021H89.72C89.96 4.47021 90.16 4.67028 90.16 4.91028V6.91028C90.16 7.15028 89.96 7.35022 89.72 7.35022H84.83V20.8502C84.83 21.0902 84.63 21.2903 84.39 21.2903H82.1C81.86 21.2903 81.66 21.0902 81.66 20.8502V7.35022H81.65Z" fill="#003F4D"/>
<path d="M108.08 8.36011C107.89 8.46011 107.67 8.40011 107.53 8.24011C106.83 7.40011 105.39 6.66016 103.75 6.66016C101.39 6.66016 100.26 7.65015 100.26 8.90015C100.26 10.3701 101.99 10.7801 104.01 11.0201C107.52 11.4501 110.79 12.3701 110.79 16.3801C110.79 20.1301 107.47 21.7401 103.72 21.7401C100.43 21.7401 97.87 20.7701 96.56 18.0001C96.46 17.7801 96.54 17.5202 96.76 17.4102L98.63 16.4401C98.84 16.3301 99.11 16.4101 99.22 16.6201C100.07 18.1901 101.88 18.8901 103.77 18.8901C105.77 18.8901 107.64 18.1901 107.64 16.3701C107.64 14.7801 105.98 14.1301 103.75 13.8901C100.31 13.4801 97.14 12.5702 97.14 8.79016C97.14 5.33016 100.55 3.91014 103.66 3.89014C106.13 3.89014 108.69 4.55018 110.04 6.81018C110.17 7.03018 110.09 7.32006 109.86 7.44006L108.08 8.36011Z" fill="#003F4D"/>
<path d="M127.42 18.8601C127.6 19.0401 127.58 19.3401 127.39 19.5101C125.71 20.9901 123.61 21.6802 121.34 21.6802C115.09 21.6802 112.44 17.3801 112.42 13.0001C112.4 8.60012 115.26 4.13013 121.34 4.13013C123.47 4.13013 125.5 4.88012 127.16 6.37012C127.35 6.54012 127.37 6.84015 127.18 7.03015L125.7 8.46008C125.54 8.62008 125.29 8.6301 125.11 8.4801C124.04 7.5801 122.68 7.16016 121.34 7.16016C117.28 7.16016 115.52 10.1901 115.55 13.0001C115.57 15.7901 117.18 18.7001 121.34 18.7001C122.68 18.7001 124.18 18.2001 125.28 17.2701C125.45 17.1201 125.71 17.1402 125.87 17.3002L127.41 18.8601H127.42Z" fill="#003F4D"/>
<path d="M150.11 21.7701C145.27 26.6101 137.43 26.6101 132.59 21.7701C127.75 16.9301 127.75 9.09012 132.59 4.25012C137.43 -0.589883 145.27 -0.589883 150.11 4.25012C154.95 9.09012 154.95 16.9301 150.11 21.7701ZM148.98 7.4801L149.76 6.70007C149.92 6.54007 149.93 6.28009 149.79 6.10009C149.56 5.82009 149.32 5.55017 149.07 5.30017C148.82 5.05017 148.54 4.80007 148.27 4.58007C148.09 4.44007 147.83 4.4401 147.67 4.6101L146.89 5.39013C147.29 5.68013 147.67 6.0001 148.02 6.3601C148.38 6.7201 148.7 7.10011 148.99 7.49011L142.37 14.1101C141.83 14.6501 140.97 14.6901 140.38 14.2101C140.34 14.1801 140.3 14.1401 140.27 14.1101C140.23 14.0701 140.2 14.0401 140.17 14.0001C139.69 13.4201 139.73 12.5601 140.27 12.0101L146.89 5.39013C143.06 2.60013 137.59 3.06015 134.3 6.78015C131.18 10.3001 131.16 15.7001 134.27 19.2301C137.9 23.3501 144.19 23.5002 148.02 19.6802C151.34 16.3602 151.66 11.1701 148.99 7.49011L148.98 7.4801Z" fill="#00EBC2"/>
<path d="M170.36 20.5601L165.73 15.33C168.93 14.68 169.99 12.35 169.99 10.04C169.99 7.13004 167.9 4.48996 163.93 4.45996C161.41 4.45996 158.89 4.43994 156.37 4.43994C156.13 4.43994 155.93 4.64 155.93 4.88V20.85C155.93 21.09 156.13 21.29 156.37 21.29H158.66C158.9 21.29 159.1 21.09 159.1 20.85V15.67H162.32L167.07 21.14C167.15 21.24 167.28 21.29 167.4 21.29H170.03C170.41 21.29 170.61 20.84 170.36 20.55V20.5601ZM159.1 12.8101V7.42004H163.93C165.93 7.42004 166.82 8.76999 166.82 10.11C166.82 11.45 165.95 12.8 163.93 12.8H159.1V12.8101Z" fill="#003F4D"/>
<path d="M28.47 20.7L22.38 4.76001C22.31 4.59001 22.15 4.47998 21.97 4.47998H19.18C19 4.47998 18.83 4.59001 18.77 4.76001L12.68 20.7C12.57 20.99 12.78 21.3 13.09 21.3H15.54C15.72 21.3 15.89 21.19 15.95 21.02L20.57 8.93005L25.19 21.02C25.26 21.19 25.42 21.3 25.6 21.3H28.05C28.36 21.3 28.57 20.99 28.46 20.7H28.47Z" fill="#003F4D"/>
</svg>
