<svg width="33" height="42" viewBox="0 0 33 42" fill="none" xmlns="http://www.w3.org/2000/svg">
<path d="M29.7583 41.4012H3.10268C1.68374 41.4012 0.525391 40.2429 0.525391 38.824V2.93072C0.525391 1.51178 1.68374 0.353516 3.10268 0.353516H16.4378L32.3356 16.2513V38.8095C32.3356 40.2285 31.1772 41.3867 29.7583 41.3867V41.4012Z" fill="#FF1744"/>
<path d="M19.0004 16.2659H32.3355L16.4377 0.368042V13.7031C16.4377 15.122 17.596 16.2804 19.0149 16.2804L19.0004 16.2659Z" fill="#FF6B87"/>
<path d="M20.9842 35.1753H11.8915C10.3567 35.1753 9.11145 33.9301 9.11145 32.3954V31.4542C9.11145 31.2081 9.31424 31.0054 9.56038 31.0054C9.80652 31.0054 10.0092 31.2081 10.0092 31.4542V32.3954C10.0092 33.4234 10.849 34.2631 11.877 34.2631H20.9697C21.9977 34.2631 22.8375 33.4234 22.8375 32.3954V31.4542C22.8375 31.2081 23.0402 31.0054 23.2864 31.0054C23.5325 31.0054 23.7352 31.2081 23.7352 31.4542V32.3954C23.7352 33.9301 22.49 35.1753 20.9553 35.1753H20.9842Z" fill="white"/>
<path d="M16.4382 31.0487C16.192 31.0487 15.9893 30.846 15.9893 30.5999V22.9405C15.9893 22.6944 16.192 22.4917 16.4382 22.4917C16.6843 22.4917 16.887 22.6944 16.887 22.9405V30.5999C16.887 30.846 16.6843 31.0487 16.4382 31.0487Z" fill="white"/>
<path d="M12.7172 27.5883L13.3831 26.9657L16.4238 30.2524L19.4788 26.9657L20.1448 27.5883L16.4238 31.5845L12.7172 27.5883Z" fill="white"/>
</svg>
